<svg xmlns="http://www.w3.org/2000/svg" viewBox="0 0 100 100" fill="none">
  <!-- Left half pin fill (light teal) -->
  <path d="M 50 20 C 34 20 22 32 22 48 C 22 66 43 84 50 92 L 50 20 Z" fill="#8FE0D1"/>
  <!-- Right half pin fill (deeper teal) -->
  <path d="M 50 20 L 50 92 C 57 84 78 66 78 48 C 78 32 66 20 50 20 Z" fill="#64CBB9"/>
  <!-- Pin outer outline contour (Dark Navy) -->
  <path d="M 50 20 C 34 20 22 32 22 48 C 22 67 44 85 50 92 C 56 85 78 67 78 48 C 78 32 66 20 50 20 Z" stroke="#164268" stroke-width="5" stroke-linejoin="round" fill="none"/>
  <!-- Inner ring (Dark Navy) -->
  <circle cx="50" cy="47" r="15" stroke="#164268" stroke-width="5.5" fill="#FFFFFF"/>
  <!-- House Roof & Chimney (Dark Navy) -->
  <path d="M 10 37 L 50 9 L 90 37 M 63 18.5 V 10 H 73 V 25.5" stroke="#164268" stroke-width="6" stroke-linecap="round" stroke-linejoin="round" fill="none"/>
</svg>
